<svg width="1486" height="909" viewBox="0 0 1486 909" fill="none" xmlns="http://www.w3.org/2000/svg">
<g clip-path="url(#clip0_2033_2769)">
<g clip-path="url(#clip1_2033_2769)">
<path d="M1051.61 426.638C1037.63 454.976 1024.11 482.702 1010.38 510.33C1004.47 522.237 997.934 533.838 992.122 545.792C989.871 550.423 986.869 551.843 981.972 551.756C968.069 551.508 954.158 551.669 939.309 551.669C939.309 586.141 939.309 619.298 939.309 653.049C890.544 653.049 842.739 653.049 793.749 653.049C793.749 620.001 793.749 587.234 793.749 553.959C723.677 553.959 654.782 553.959 585.838 553.959C583.832 551.244 581.804 548.995 580.328 546.429C559.318 509.921 538.52 473.289 517.304 436.902C513.458 430.306 513.465 425.543 518.005 419.1C541.921 385.156 565.332 350.855 588.867 316.644C617.12 275.574 645.311 234.461 673.549 193.381C700.106 154.748 726.735 116.163 753.193 77.4624C755.862 73.558 758.584 71.5464 763.631 71.5646C817.957 71.7598 872.284 71.6992 926.611 71.7305C927.581 71.7311 928.551 72.0031 931.2 72.4001C893.042 128.014 855.177 182.827 817.34 237.667C779.444 292.592 742.148 347.932 704.141 403.748C706.429 404.486 708.165 405.529 709.905 405.535C737.189 405.638 764.473 405.608 792.711 405.608C792.997 402.304 793.443 399.481 793.452 396.657C793.513 377.66 793.336 358.66 793.612 339.666C793.661 336.296 794.737 332.47 796.58 329.671C811.203 307.469 826.013 285.385 841.097 263.494C843.026 260.695 843.766 255.66 849.025 256.091C849.025 324.4 849.025 392.505 849.025 461.618C844.929 461.618 841.683 461.617 838.437 461.618C774.111 461.624 709.785 461.512 645.46 461.806C638.477 461.838 634.392 459.901 631.458 453.546C628.129 446.335 623.816 439.578 619.644 432.109C689.2 330.843 758.939 229.311 829.614 126.417C820.983 126.152 813.246 125.741 805.508 125.711C783.361 125.623 783.678 125.896 771.619 143.963C754.083 170.236 736.052 196.178 718.202 222.24C699.232 249.936 680.246 277.621 661.232 305.288C636.963 340.603 612.631 375.874 588.399 411.215C584.66 416.669 581.312 422.391 577.08 429.104C590.265 451.836 603.657 474.926 616.942 497.831C694.579 497.831 771.206 497.831 848.997 497.831C848.997 530.559 848.997 562.986 848.997 595.883C860.956 595.883 871.751 595.883 883.406 595.883C883.406 563.338 883.406 531.168 883.406 498.402C886.742 498.117 889.286 497.718 891.831 497.711C910.495 497.657 929.163 497.479 947.822 497.807C953.294 497.903 956.3 496.055 958.621 491.183C963.301 481.356 968.542 471.797 974.015 461.231C963.471 459.427 953.651 460.586 943.915 460.372C934.255 460.159 924.585 460.324 914.92 460.324C904.945 460.324 894.97 460.324 884.012 460.324C883.775 456.993 883.399 454.154 883.398 451.314C883.362 370.99 883.386 290.666 883.3 210.342C883.295 205.864 884.125 202.054 886.733 198.242C902.679 174.933 918.39 151.463 934.228 128.079C934.919 127.06 936.082 126.361 936.874 125.648C937.61 125.937 937.93 126.038 938.227 126.186C938.504 126.324 938.984 126.511 938.985 126.678C939.245 218.615 939.472 310.552 939.727 402.489C939.728 402.74 940.14 402.99 940.884 403.836C980.238 403.836 1020.12 403.836 1061.02 403.836C1059.95 412.591 1054.95 418.911 1051.61 426.638Z" fill="#FCFCFC"/>
<path d="M1117.9 386.807C1134.93 352.486 1151.58 318.813 1168.22 285.135C1179.07 263.177 1189.69 241.103 1200.81 219.282C1211.17 198.947 1226.24 182.997 1246.53 172.123C1258.79 165.558 1274.37 162.527 1287.97 165.026C1216.6 308.725 1145.4 452.095 1073.67 596.509C1077.01 596.98 1079.43 597.575 1081.86 597.619C1089.19 597.752 1096.56 597.265 1103.85 597.796C1110.15 598.254 1113.5 595.748 1116.18 590.221C1127.53 566.902 1139.22 543.754 1150.82 520.561C1183.39 455.437 1216.06 390.362 1248.53 325.189C1269.96 282.189 1291.05 239.024 1312.42 195.993C1322.13 176.414 1332.16 156.989 1342 137.468C1343.58 134.324 1344.88 131.04 1346.7 126.95C1243.65 126.95 1141.57 126.95 1039.04 126.95C1039.04 139.192 1039.04 151.087 1039.04 164.35C1103.16 164.35 1167.43 164.35 1231.7 164.35C1231.77 164.913 1231.85 165.476 1231.92 166.038C1231.26 166.532 1230.65 167.328 1229.92 167.476C1206.08 172.282 1188.75 186.691 1174.13 205.135C1172.48 207.218 1170.31 209.05 1169.21 211.386C1165.65 218.929 1159.6 219.855 1152.03 219.817C1099.7 219.552 1047.36 219.678 995.031 219.679C991.706 219.679 988.382 219.679 985.17 219.679C982.958 212.263 982.166 94.5903 984.137 72.3594C1133.56 72.3594 1283.04 72.3594 1433.91 72.3594C1430.31 79.6862 1426.93 86.6592 1423.47 93.594C1401.74 137.13 1379.89 180.602 1358.29 224.203C1327.82 285.74 1297.58 347.398 1267.14 408.951C1251.13 441.325 1234.82 473.552 1218.77 505.909C1198.99 545.793 1179.37 585.755 1159.62 625.653C1155.96 633.044 1151.78 640.177 1148.28 647.641C1146.12 652.276 1142.84 653.852 1138.03 653.694C1132.7 653.519 1127.37 653.657 1122.03 653.657C1079.37 653.659 1036.71 653.665 994.054 653.652C992.071 653.651 990.088 653.477 987.365 653.349C987.678 651.26 987.513 649.275 988.271 647.747C1016.76 590.347 1045.33 532.992 1073.88 475.625C1087.61 448.043 1101.32 420.451 1115.02 392.857C1115.9 391.081 1116.68 389.255 1117.9 386.807Z" fill="#FBFBFB"/>
<path d="M452.711 120.304C472.69 136.923 487.749 156.647 500.061 178.557C520.368 214.694 527.787 253.923 524.219 294.677C519.863 344.433 498.806 386.86 462.73 421.757C401.519 480.969 340.489 540.367 279.374 599.679C263.134 615.439 246.763 631.065 230.682 646.985C226.882 650.748 223.112 652.524 217.625 652.444C195.671 652.128 173.711 652.314 150.593 652.314C153.959 648.665 156.818 645.277 159.972 642.19C213.026 590.266 266.145 538.41 319.185 486.472C342.951 463.2 366.592 439.798 390.257 416.422C403.74 403.103 417.655 390.178 430.492 376.26C452.547 352.346 464.584 323.853 467.471 291.329C471.448 246.516 457.957 207.491 428.208 174.357C403.633 146.986 372.748 130.102 335.942 125.792C274.167 118.559 225.367 141.721 189.487 191.671C172.351 215.526 163.839 243.026 162.602 272.559C162.533 274.202 162.399 275.842 162.202 278.943C143.69 280.313 125.338 279.876 106.518 278.218C106.113 275.964 105.347 274.06 105.506 272.236C112.34 193.647 148.344 133.441 217.777 94.3344C254.593 73.599 294.316 66.4948 335.999 70.0048C380.127 73.7206 418.403 91.6916 452.711 120.304Z" fill="#FBFBFB"/>
<path d="M250.478 427.473C273.579 404.892 296.136 382.766 318.695 360.641C330.803 348.766 342.977 336.957 355.003 324.999C363.859 316.194 370.387 305.968 373.552 293.713C383.643 254.654 357.103 221.836 324.782 217.419C286.437 212.178 256.98 239.758 254.647 273.654C254.315 278.475 252.834 279.828 247.79 278.927C243.058 278.082 238.02 279.023 233.117 279.043C221.661 279.091 210.205 279.059 197.552 279.059C197.777 266.508 198.622 255.07 202.383 244.272C217.385 201.19 246.221 172.525 291.662 163.574C350.674 151.948 403.396 182.313 423.806 233.261C439.702 272.943 435.766 310.757 409.997 345.063C401.301 356.64 389.698 366.058 379.268 376.303C343.666 411.275 308.048 446.23 272.338 481.09C228.288 524.092 184.132 566.987 140.035 609.941C128.85 620.837 117.736 631.807 106.518 642.671C105.439 643.716 103.859 644.243 101.573 645.545C101.221 642.719 100.802 640.894 100.797 639.069C100.745 619.747 100.94 600.423 100.634 581.106C100.553 575.948 102.226 572.295 105.809 568.851C130.04 545.559 154.279 522.273 178.305 498.769C202.309 475.287 226.068 451.553 250.478 427.473Z" fill="#FBFBFB"/>
<path d="M429 596.339C469.653 596.339 509.305 596.339 550.36 596.339C550.442 605.784 550.551 614.951 550.591 624.117C550.631 633.066 550.6 642.015 550.6 651.64C456.402 651.64 362.786 651.64 267.451 651.64C270.583 648.47 272.523 646.432 274.543 644.476C289.575 629.914 304.728 615.474 319.588 600.738C322.963 597.391 326.377 596.226 331.014 596.25C363.342 596.418 395.671 596.339 429 596.339Z" fill="#FCFBFB"/>
<path d="M226.603 740.902C226.607 743.43 226.459 745.11 226.637 746.755C227.674 756.33 225.216 764.518 216.216 771.028C230.399 779.292 228.971 792.692 228.496 805.511C228.072 816.969 219.696 825.718 207.941 827.724C204.365 828.335 200.658 828.32 197.01 828.336C168.061 828.466 139.113 828.51 110.165 828.639C102.706 828.673 100.826 826.861 100.799 818.246C100.721 792.62 100.775 766.995 100.776 741.37C100.777 737.043 100.685 732.715 100.783 728.391C100.948 721.11 102.848 719.076 110.053 718.372C111.702 718.211 113.378 718.334 115.042 718.334C141.001 718.334 166.959 718.242 192.917 718.413C198.174 718.448 203.569 718.896 208.648 720.166C218.856 722.718 225.548 728.963 226.603 740.902ZM193.098 781.638C171.606 781.638 150.113 781.638 127.974 781.638C127.974 790.129 127.974 797.866 127.974 806.341C150.515 806.341 172.348 806.418 194.179 806.209C196.163 806.19 199.533 804.644 199.848 803.259C200.921 798.54 201.693 793.461 201.005 788.749C200.636 786.223 197.048 784.167 193.098 781.638ZM140.513 763.701C155.126 763.701 169.738 763.712 184.351 763.689C186.669 763.685 189.04 763.811 191.295 763.386C197.845 762.152 201.71 757.108 201.295 750.718C200.831 743.589 197.404 740.346 189.572 740.296C171.307 740.179 153.04 740.245 134.775 740.275C132.538 740.278 130.301 740.509 127.494 740.667C127.387 748.4 126.14 755.522 128.606 762.829C132.156 763.138 135.394 763.419 140.513 763.701Z" fill="#F8F8F8"/>
<path d="M727.358 783.79C727.364 773.83 727.288 764.84 727.4 755.852C727.649 735.916 740.076 721.999 760.047 719.74C768.266 718.811 776.582 718.46 784.859 718.383C804.856 718.197 824.857 718.245 844.856 718.372C852.711 718.422 853.357 719.286 853.368 726.958C853.374 730.933 853.369 734.907 853.369 740.179C849.327 740.71 845.59 741.601 841.847 741.626C821.182 741.761 800.515 741.685 779.849 741.681C778.183 741.681 776.516 741.661 774.85 741.684C758.868 741.909 754.042 746.41 753.414 762.34C753.086 770.66 753.046 779.017 753.418 787.334C753.963 799.523 759.382 805.844 770.781 806.139C789.09 806.613 807.424 806.144 825.746 806.025C826.327 806.022 826.905 805.486 828.201 804.843C828.201 797.742 828.201 790.284 828.201 781.776C816.066 781.776 803.839 781.683 791.614 781.807C782.624 781.898 781.62 781.24 781.411 773.82C781.175 765.433 783.452 762.479 791.389 762.381C808.72 762.167 826.056 762.17 843.386 762.377C852.078 762.481 854.538 765.188 854.627 773.912C854.74 784.911 854.863 795.917 854.586 806.91C854.212 821.805 847.831 828.195 833.085 828.32C811.42 828.504 789.747 828.688 768.089 828.259C753.262 827.965 739.745 824.111 731.665 809.914C727.182 802.036 727.234 793.412 727.358 783.79Z" fill="#F5F5F5"/>
<path d="M544.015 745.076C543.343 772.441 543.343 799.417 543.343 826.625C536.608 831.327 529.189 829.784 522.139 829.323C516.958 828.984 516.639 824.694 516.666 820.361C516.787 801.036 516.725 781.709 516.725 762.384C516.725 752.721 516.622 743.056 516.739 733.395C516.863 723.162 520.92 718.908 531.084 718.376C535.736 718.132 540.412 718.311 545.076 718.335C554.014 718.382 560.54 722.121 565.998 729.519C584.092 754.045 602.742 778.161 622.148 802.249C623.777 788.705 623.248 775.279 623.344 761.884C623.441 748.256 623.365 734.626 623.365 720.624C631.784 716.819 639.741 718.329 648.068 719.175C648.282 722.374 648.557 724.644 648.566 726.915C648.678 756.565 648.767 786.216 648.824 815.866C648.839 823.587 644.497 827.987 636.673 828.353C636.008 828.384 635.341 828.363 634.674 828.361C610.234 828.279 611.179 830.404 596.136 810.627C581.661 791.597 567.009 772.702 552.383 753.789C549.955 750.649 547.259 747.717 544.015 745.076Z" fill="#F7F7F7"/>
<path d="M1027 718.333C1040.32 718.331 1052.67 717.813 1064.95 718.503C1073.45 718.98 1082.09 720.299 1090.24 722.699C1105.31 727.139 1113.36 739.087 1114.71 753.612C1116.04 767.979 1117.01 782.727 1113.47 797.244C1109.34 814.203 1098.11 825.201 1080.99 827.605C1076.41 828.249 1071.71 828.286 1067.06 828.342C1043.8 828.621 1020.53 828.887 997.267 828.948C994.166 828.956 991.061 827.773 987.353 827.018C987.353 822.872 987.353 819.607 987.353 816.343C987.355 787.709 987.337 759.074 987.368 730.439C987.38 718.948 987.934 718.394 999.032 718.341C1008.02 718.297 1017.01 718.333 1027 718.333ZM1014.61 773.001C1014.61 783.879 1014.61 794.756 1014.61 806.287C1033.47 806.287 1051.37 806.706 1069.25 806.143C1081.63 805.753 1088.18 798.273 1088.66 785.44C1088.96 777.463 1088.9 769.461 1088.68 761.48C1088.35 749.609 1081.34 742.068 1069.49 741.807C1051.4 741.409 1033.29 741.702 1014.61 741.702C1014.61 751.771 1014.61 761.386 1014.61 773.001Z" fill="#F7F6F7"/>
<path d="M312.217 731.359C322.662 720.996 335.411 718.819 348.483 718.436C364.122 717.978 379.82 717.699 395.422 718.588C403.848 719.068 412.59 721.039 420.366 724.302C433.056 729.627 437.9 741.399 438.391 754.138C438.964 769.023 438.221 784.01 437.184 798.893C436.161 813.569 427.172 822.284 413.416 826.113C408.677 827.431 403.637 828.195 398.722 828.261C380.409 828.506 362.087 828.592 343.776 828.267C332.642 828.07 322.14 825.617 313.699 817.315C308.686 812.385 305.973 806.358 304.931 799.816C302.148 782.339 302.726 764.722 305.16 747.286C305.905 741.952 309.446 737.009 312.217 731.359ZM410.781 796.127C414.424 782.699 412.955 768.992 412.135 755.491C411.558 745.986 405.924 741.932 395.756 741.745C379.776 741.45 363.768 741.185 347.808 741.815C333.276 742.389 331.118 747.465 329.524 759.434C328.305 768.597 328.361 778.162 329.475 787.351C331.396 803.18 334.912 805.423 347.694 806C363.643 806.721 379.651 806.466 395.623 806.148C401.705 806.028 407.473 804.076 410.781 796.127Z" fill="#F7F7F7"/>
<path d="M537.177 535.543C541.921 543.463 546.299 550.746 551.331 559.117C488.531 559.117 427.277 559.117 364.854 559.117C366.136 556.961 366.667 555.428 367.705 554.416C383.646 538.882 399.564 523.324 415.749 508.047C417.886 506.03 421.451 504.512 424.368 504.488C455.635 504.236 486.904 504.331 518.768 504.331C524.751 514.469 530.781 524.688 537.177 535.543Z" fill="#F9F9F9"/>
<path d="M1316.96 799.795C1322.06 809.106 1326.81 817.761 1332.12 827.417C1322.26 830.857 1313.32 830.76 1304.49 827.657C1302.68 827.022 1301.39 824.352 1300.29 822.38C1297.4 817.181 1294.74 811.85 1291.64 805.9C1268.28 805.9 1244.72 805.9 1220.21 805.9C1217.42 811.216 1213.95 817.231 1211.06 823.505C1208.95 828.061 1205.89 830.299 1200.94 829.662C1194.28 828.805 1187.04 831.903 1180.09 826.486C1187.92 811.805 1195.61 797.227 1203.45 782.725C1211.96 766.983 1220.54 751.28 1229.21 735.631C1231.62 731.282 1233.9 726.628 1237.25 723.079C1245.83 714.012 1271.01 716.866 1277.17 727.738C1290.58 751.392 1303.5 775.323 1316.96 799.795ZM1240.4 768.372C1237.43 773.792 1234.45 779.212 1231.13 785.257C1247.8 785.257 1263.18 785.257 1280.06 785.257C1271.99 770.001 1265.01 755.405 1255.47 740.267C1250.02 750.203 1245.42 758.583 1240.4 768.372Z" fill="#F7F6F7"/>
</g>
</g>
<defs>
<clipPath id="clip0_2033_2769">
<rect width="1486" height="909" fill="white"/>
</clipPath>
<clipPath id="clip1_2033_2769">
<rect width="2816" height="1536" fill="white" transform="translate(-653 -322)"/>
</clipPath>
</defs>
</svg>
