<svg version="1.1" id="Layer_1" xmlns="http://www.w3.org/2000/svg" xmlns:xlink="http://www.w3.org/1999/xlink" x="0px" y="0px"
	 viewBox="741 379 1358 785" xml:space="preserve">
<path fill="#FCFCFC" opacity="1.000000" stroke="none" 
	d="
M1704.612061,748.638062 
	C1690.633789,776.976379 1677.105835,804.701965 1663.382446,832.330505 
	C1657.468384,844.237061 1650.934448,855.838013 1645.122559,867.791809 
	C1642.870972,872.423035 1639.869385,873.843384 1634.972412,873.756042 
	C1621.069092,873.507996 1607.158447,873.669067 1592.309082,873.669067 
	C1592.309082,908.140747 1592.309082,941.298035 1592.309082,975.048950 
	C1543.544189,975.048950 1495.738892,975.048950 1446.749390,975.048950 
	C1446.749390,942.000854 1446.749390,909.234741 1446.749390,875.959351 
	C1376.676758,875.959351 1307.782104,875.959351 1238.838257,875.959351 
	C1236.831909,873.244690 1234.804565,870.995422 1233.327881,868.429199 
	C1212.317993,831.920959 1191.520264,795.289612 1170.303589,758.902405 
	C1166.457642,752.306641 1166.465088,747.543274 1171.005005,741.099792 
	C1194.920898,707.155762 1218.331787,672.855530 1241.866943,638.643860 
	C1270.120117,597.574097 1298.310791,556.461426 1326.549316,515.381531 
	C1353.106201,476.747955 1379.734863,438.163452 1406.193237,399.462616 
	C1408.862549,395.558228 1411.583740,393.546692 1416.630615,393.564819 
	C1470.956909,393.760071 1525.284180,393.699402 1579.611084,393.730774 
	C1580.581055,393.731323 1581.550903,394.003326 1584.199707,394.400299 
	C1546.042358,450.014404 1508.176880,504.827637 1470.340210,559.667175 
	C1432.444214,614.592651 1395.148193,669.932190 1357.141113,725.748352 
	C1359.429077,726.486511 1361.165161,727.529053 1362.905029,727.535706 
	C1390.188965,727.638489 1417.473389,727.607788 1445.710938,727.607788 
	C1445.996704,724.304443 1446.443481,721.481628 1446.452515,718.657349 
	C1446.512695,699.659790 1446.336060,680.659851 1446.612183,661.666077 
	C1446.661133,658.296082 1447.737305,654.469910 1449.580200,651.671692 
	C1464.203003,629.468811 1479.012817,607.385742 1494.096924,585.494385 
	C1496.025879,582.695007 1496.766357,577.660339 1502.025146,578.090942 
	C1502.025146,646.400513 1502.025146,714.505615 1502.025146,783.617798 
	C1497.928833,783.617798 1494.682983,783.617493 1491.437134,783.617859 
	C1427.111328,783.624084 1362.785034,783.512207 1298.460449,783.806091 
	C1291.477173,783.837952 1287.392456,781.901428 1284.458496,775.546143 
	C1281.129395,768.335205 1276.816406,761.578308 1272.643677,754.109131 
	C1342.199829,652.843323 1411.938599,551.311584 1482.613647,448.416870 
	C1473.982788,448.152405 1466.246094,447.741699 1458.507690,447.711151 
	C1436.361328,447.623718 1436.678345,447.896118 1424.619263,465.963379 
	C1407.083374,492.235748 1389.052490,518.177979 1371.202026,544.240112 
	C1352.232422,571.936584 1333.245972,599.621704 1314.232422,627.288147 
	C1289.962891,662.602783 1265.631226,697.874573 1241.399536,733.215027 
	C1237.660034,738.668884 1234.312012,744.391235 1230.080444,751.104004 
	C1243.265259,773.836365 1256.657471,796.926147 1269.942261,819.830933 
	C1347.579102,819.830933 1424.205688,819.830933 1501.997070,819.830933 
	C1501.997070,852.558838 1501.997070,884.986450 1501.997070,917.882996 
	C1513.955566,917.882996 1524.750854,917.882996 1536.405762,917.882996 
	C1536.405762,885.338196 1536.405762,853.168335 1536.405762,820.402100 
	C1539.742310,820.116882 1542.286133,819.718079 1544.830933,819.710754 
	C1563.495239,819.657104 1582.163330,819.479736 1600.822144,819.807190 
	C1606.294434,819.903198 1609.300415,818.055115 1611.620728,813.183411 
	C1616.301147,803.356628 1621.541870,793.796814 1627.015503,783.231079 
	C1616.471436,781.427185 1606.650635,782.586609 1596.915527,782.371887 
	C1587.254639,782.158813 1577.585327,782.324585 1567.919800,782.324402 
	C1557.944946,782.324280 1547.970215,782.324402 1537.011963,782.324402 
	C1536.775391,778.993530 1536.398926,776.153870 1536.397583,773.314026 
	C1536.361694,692.990051 1536.385620,612.666138 1536.299927,532.342224 
	C1536.295044,527.864197 1537.125000,524.053833 1539.732666,520.242126 
	C1555.679321,496.933136 1571.390503,473.463165 1587.228516,450.079651 
	C1587.918823,449.060303 1589.082153,448.361359 1589.874512,447.648621 
	C1590.609863,447.937042 1590.930298,448.038300 1591.227295,448.186493 
	C1591.503662,448.324280 1591.984375,448.511383 1591.984863,448.677856 
	C1592.245239,540.615051 1592.472046,632.552307 1592.727173,724.489502 
	C1592.727905,724.740356 1593.140381,724.990051 1593.884521,725.835754 
	C1633.238281,725.835754 1673.120483,725.835754 1714.018799,725.835754 
	C1712.948486,734.591492 1707.950928,740.911499 1704.612061,748.638062 
z"/>
<path fill="#FBFBFB" opacity="1.000000" stroke="none" 
	d="
M1770.895020,708.806580 
	C1787.925171,674.486389 1804.576050,640.813049 1821.217163,607.134766 
	C1832.066772,585.177063 1842.687012,563.102722 1853.806274,541.282471 
	C1864.168945,520.947266 1879.244141,504.996704 1899.534546,494.123260 
	C1911.786621,487.557526 1927.365967,484.527374 1940.970947,487.026276 
	C1869.602783,630.725037 1798.397949,774.094604 1726.674194,918.509338 
	C1730.007324,918.980103 1732.429565,919.574524 1734.861694,919.618652 
	C1742.192627,919.751648 1749.556763,919.265137 1756.851562,919.795898 
	C1763.148193,920.254028 1766.495483,917.748291 1769.184326,912.220703 
	C1780.527710,888.901855 1792.223999,865.754333 1803.823975,842.560547 
	C1836.394775,777.437073 1869.061890,712.361572 1901.534180,647.189026 
	C1922.959106,604.188843 1944.054077,561.024414 1965.415649,517.992554 
	C1975.134644,498.414246 1985.161621,478.989014 1994.995728,459.467529 
	C1996.579224,456.324097 1997.883423,453.040009 1999.704468,448.950043 
	C1896.646240,448.950043 1794.567139,448.950043 1692.041260,448.950043 
	C1692.041260,461.191772 1692.041260,473.086792 1692.041260,486.350342 
	C1756.159912,486.350342 1820.428955,486.350342 1884.697998,486.350342 
	C1884.771851,486.912964 1884.845703,487.475586 1884.919556,488.038208 
	C1884.255249,488.532166 1883.651733,489.328217 1882.917725,489.476227 
	C1859.079712,494.281708 1841.747070,508.691345 1827.126831,527.135132 
	C1825.475464,529.218384 1823.312500,531.049744 1822.210327,533.386414 
	C1818.652710,540.928772 1812.595703,541.855469 1805.027344,541.817139 
	C1752.696167,541.551819 1700.363159,541.678467 1648.030640,541.679199 
	C1644.706421,541.679260 1641.382080,541.679260 1638.169556,541.679260 
	C1635.958008,534.263367 1635.166260,416.590271 1637.136719,394.359375 
	C1786.555542,394.359375 1936.037354,394.359375 2086.912354,394.359375 
	C2083.310547,401.686157 2079.926758,408.659180 2076.466309,415.593994 
	C2054.742188,459.130341 2032.886963,502.601746 2011.293213,546.202637 
	C1980.816284,607.740112 1950.582153,669.397705 1920.138062,730.951477 
	C1904.126099,763.325439 1887.816406,795.552124 1871.770386,827.909363 
	C1851.991821,867.792847 1832.372803,907.755432 1812.623047,947.653198 
	C1808.964722,955.043518 1804.775391,962.177368 1801.283569,969.641174 
	C1799.115601,974.275513 1795.835815,975.851807 1791.031982,975.693848 
	C1785.704590,975.518555 1780.366821,975.656738 1775.033569,975.657043 
	C1732.373535,975.659485 1689.713501,975.665100 1647.053467,975.651672 
	C1645.070679,975.651062 1643.087769,975.476929 1640.364868,975.348755 
	C1640.677734,973.260315 1640.512695,971.274536 1641.270874,969.746948 
	C1669.756714,912.347290 1698.332764,854.992310 1726.884644,797.625366 
	C1740.612183,770.043457 1754.318115,742.450928 1768.022095,714.857361 
	C1768.904175,713.081238 1769.684204,711.254517 1770.895020,708.806580 
z"/>
<path fill="#FBFBFB" opacity="1.000000" stroke="none" 
	d="
M1105.710938,442.304626 
	C1125.690430,458.923065 1140.749023,478.647400 1153.061157,500.557404 
	C1173.368164,536.694885 1180.787231,575.923828 1177.219360,616.677429 
	C1172.863403,666.433655 1151.806152,708.859985 1115.730347,743.757324 
	C1054.519165,802.969116 993.488586,862.367676 932.373596,921.678955 
	C916.134277,937.438965 899.763428,953.065552 883.682556,968.985291 
	C879.881714,972.748108 876.111633,974.523926 870.625000,974.444763 
	C848.671509,974.128052 826.710815,974.313965 803.593262,974.313965 
	C806.959290,970.665283 809.818298,967.277039 812.972229,964.190247 
	C866.025757,912.266663 919.145081,860.410339 972.184937,808.472839 
	C995.951538,785.200134 1019.592407,761.798767 1043.257324,738.422302 
	C1056.740234,725.103821 1070.655396,712.178040 1083.491821,698.260010 
	C1105.547119,674.346069 1117.583984,645.853882 1120.470703,613.329224 
	C1124.448120,568.515991 1110.957275,529.491028 1081.208130,496.357544 
	C1056.632690,468.986237 1025.748291,452.102295 988.942017,447.792603 
	C927.166687,440.559265 878.367310,463.721893 842.486694,513.671509 
	C825.350952,537.526306 816.838745,565.026306 815.601929,594.559692 
	C815.533081,596.202637 815.398682,597.842773 815.202393,600.943359 
	C796.690125,602.312927 778.337585,601.876404 759.517639,600.218811 
	C759.113281,597.964355 758.347107,596.060120 758.505737,594.236328 
	C765.339966,515.647827 801.344116,455.441254 870.777283,416.334747 
	C907.592651,395.599426 947.316406,388.495209 988.999390,392.005219 
	C1033.126587,395.721039 1071.403442,413.692017 1105.710938,442.304626 
z"/>
<path fill="#FBFBFB" opacity="1.000000" stroke="none" 
	d="
M903.477905,749.473389 
	C926.578735,726.892029 949.135864,704.765869 971.694702,682.641418 
	C983.803101,670.766296 995.977173,658.957336 1008.003296,646.999512 
	C1016.859131,638.194092 1023.386536,627.968445 1026.552368,615.713501 
	C1036.642578,576.654724 1010.102661,543.836487 977.781555,539.419067 
	C939.436951,534.178345 909.979858,561.758118 907.646912,595.654053 
	C907.315063,600.475464 905.834412,601.828491 900.789734,600.927246 
	C896.057556,600.081909 891.020203,601.022949 886.116638,601.043518 
	C874.661133,601.091614 863.205322,601.058960 850.552185,601.058960 
	C850.777283,588.508606 851.622253,577.070068 855.382629,566.271851 
	C870.385254,523.190674 899.221375,494.525635 944.661804,485.573822 
	C1003.673828,473.948395 1056.396240,504.313477 1076.805786,555.261230 
	C1092.702148,594.942993 1088.765747,632.756958 1062.996582,667.063660 
	C1054.300781,678.640503 1042.697632,688.057800 1032.267578,698.303467 
	C996.666321,733.275269 961.048401,768.230408 925.338013,803.090698 
	C881.287598,846.092468 837.132324,888.986938 793.035461,931.941162 
	C781.849487,942.837341 770.735535,953.807739 759.518127,964.671326 
	C758.439148,965.716309 756.858765,966.243652 754.573059,967.545715 
	C754.221436,964.719116 753.801941,962.894714 753.796997,961.069275 
	C753.745117,941.747742 753.939819,922.423096 753.634399,903.106201 
	C753.552795,897.948730 755.225891,894.295715 758.808838,890.851501 
	C783.039978,867.559326 807.278870,844.273132 831.304565,820.769714 
	C855.309204,797.286926 879.068298,773.553101 903.477905,749.473389 
z"/>
<path fill="#FCFBFB" opacity="1.000000" stroke="none" 
	d="
M1082.000244,918.339111 
	C1122.652588,918.339111 1162.305054,918.339111 1203.359985,918.339111 
	C1203.441528,927.784607 1203.550781,936.950745 1203.591309,946.117188 
	C1203.630737,955.066101 1203.599976,964.015259 1203.599976,973.640503 
	C1109.401733,973.640503 1015.785828,973.640503 920.450562,973.640503 
	C923.583313,970.470520 925.523254,968.432190 927.542786,966.475952 
	C942.575378,951.914124 957.727966,937.473877 972.587708,922.737976 
	C975.962463,919.391296 979.376526,918.226379 984.013916,918.250549 
	C1016.341919,918.418579 1048.671265,918.339233 1082.000244,918.339111 
z"/>
<path fill="#F8F8F8" opacity="1.000000" stroke="none" 
	d="
M879.602905,1062.902344 
	C879.607117,1065.429688 879.459229,1067.110107 879.637268,1068.755005 
	C880.673767,1078.329834 878.216187,1086.518311 869.215576,1093.027832 
	C883.398743,1101.291504 881.970886,1114.692139 881.496399,1127.511353 
	C881.072205,1138.969238 872.695923,1147.717773 860.941284,1149.724365 
	C857.365417,1150.334717 853.657898,1150.319946 850.009521,1150.336304 
	C821.061279,1150.466431 792.112732,1150.510010 763.164490,1150.639282 
	C755.706116,1150.672485 753.825500,1148.861450 753.799194,1140.245728 
	C753.720825,1114.620483 753.775391,1088.994995 753.776428,1063.369507 
	C753.776611,1059.043091 753.685059,1054.714966 753.783020,1050.390747 
	C753.947937,1043.109741 755.848022,1041.076416 763.052795,1040.372192 
	C764.701538,1040.211060 766.378418,1040.333740 768.042358,1040.333740 
	C794.000610,1040.333862 819.959412,1040.242310 845.916565,1040.413330 
	C851.173767,1040.447998 856.569092,1040.896362 861.647766,1042.165894 
	C871.856323,1044.717773 878.548157,1050.962769 879.602905,1062.902344 
M846.097961,1103.637695 
	C824.605652,1103.637695 803.113342,1103.637695 780.974426,1103.637695 
	C780.974426,1112.129028 780.974426,1119.865967 780.974426,1128.340576 
	C803.515381,1128.340576 825.348450,1128.418457 847.178711,1128.208984 
	C849.162781,1128.190063 852.533447,1126.644165 852.848206,1125.259155 
	C853.920837,1120.539673 854.692749,1115.461060 854.005005,1110.749268 
	C853.636353,1108.223145 850.048279,1106.166748 846.097961,1103.637695 
M793.512939,1085.701416 
	C808.125549,1085.701050 822.738159,1085.712036 837.350769,1085.688721 
	C839.668945,1085.684937 842.040405,1085.811157 844.294739,1085.386353 
	C850.844971,1084.151733 854.710266,1079.108032 854.294739,1072.718262 
	C853.831116,1065.588867 850.404236,1062.345703 842.571472,1062.295776 
	C824.306458,1062.179199 806.040222,1062.245239 787.774475,1062.274536 
	C785.537598,1062.278076 783.301147,1062.509277 780.493652,1062.666870 
	C780.386536,1070.399658 779.139832,1077.522095 781.605530,1084.829346 
	C785.155457,1085.137817 788.393738,1085.419189 793.512939,1085.701416 
z"/>
<path fill="#F5F5F5" opacity="1.000000" stroke="none" 
	d="
M1380.358643,1105.790283 
	C1380.363892,1095.830688 1380.287964,1086.840088 1380.400146,1077.851807 
	C1380.648926,1057.915894 1393.075928,1043.999634 1413.047241,1041.740601 
	C1421.265869,1040.810913 1429.582031,1040.460571 1437.858765,1040.383667 
	C1457.856323,1040.197632 1477.857422,1040.244873 1497.856079,1040.371826 
	C1505.710693,1040.421753 1506.356689,1041.286133 1506.368164,1048.958374 
	C1506.374146,1052.932739 1506.369263,1056.907104 1506.369263,1062.179688 
	C1502.327515,1062.710449 1498.590210,1063.601562 1494.847290,1063.625977 
	C1474.182251,1063.761230 1453.515625,1063.685059 1432.849609,1063.681396 
	C1431.182983,1063.681152 1429.516113,1063.660767 1427.849731,1063.684326 
	C1411.867798,1063.909424 1407.042358,1068.409912 1406.414429,1084.340210 
	C1406.086548,1092.660522 1406.046143,1101.017700 1406.417969,1109.333984 
	C1406.962891,1121.523682 1412.382446,1127.843994 1423.781372,1128.139160 
	C1442.090210,1128.613281 1460.423706,1128.144409 1478.746460,1128.025635 
	C1479.327637,1128.021851 1479.905518,1127.486084 1481.200928,1126.842773 
	C1481.200928,1119.742065 1481.200928,1112.284546 1481.200928,1103.776367 
	C1469.066284,1103.776367 1456.838989,1103.683472 1444.614014,1103.807129 
	C1435.624634,1103.898071 1434.620483,1103.240356 1434.411255,1095.820435 
	C1434.174927,1087.432861 1436.451904,1084.479370 1444.389648,1084.381470 
	C1461.719727,1084.167480 1479.056152,1084.170654 1496.386475,1084.377319 
	C1505.078125,1084.480957 1507.538208,1087.188232 1507.627441,1095.912720 
	C1507.740112,1106.911133 1507.862671,1117.917358 1507.586304,1128.910156 
	C1507.211914,1143.805176 1500.830811,1150.194824 1486.084961,1150.320068 
	C1464.420410,1150.504028 1442.746948,1150.687866 1421.089478,1150.258911 
	C1406.261963,1149.965332 1392.745117,1146.111572 1384.665283,1131.914551 
	C1380.181763,1124.036255 1380.233765,1115.411865 1380.358643,1105.790283 
z"/>
<path fill="#F7F7F7" opacity="1.000000" stroke="none" 
	d="
M1197.014771,1067.076416 
	C1196.342896,1094.440796 1196.342896,1121.417114 1196.342896,1148.625000 
	C1189.608521,1153.326660 1182.189453,1151.784180 1175.138916,1151.322876 
	C1169.958252,1150.984009 1169.638916,1146.694092 1169.666016,1142.361084 
	C1169.787109,1123.035889 1169.724854,1103.709473 1169.725098,1084.383545 
	C1169.725220,1074.720581 1169.621948,1065.056519 1169.739014,1055.395020 
	C1169.863037,1045.162231 1173.919800,1040.908203 1184.083984,1040.375854 
	C1188.736206,1040.132080 1193.411621,1040.311035 1198.076416,1040.335449 
	C1207.014526,1040.382324 1213.539795,1044.121094 1218.997925,1051.519409 
	C1237.091919,1076.045410 1255.741577,1100.161499 1275.148193,1124.248535 
	C1276.777466,1110.704834 1276.247681,1097.278687 1276.343750,1083.884155 
	C1276.441528,1070.255615 1276.365234,1056.626099 1276.365234,1042.624268 
	C1284.784058,1038.819214 1292.741333,1040.328857 1301.068481,1041.174561 
	C1301.281982,1044.374390 1301.557495,1046.643921 1301.566040,1048.914551 
	C1301.677734,1078.565063 1301.767456,1108.215576 1301.824097,1137.866211 
	C1301.838745,1145.587158 1297.496704,1149.986694 1289.673340,1150.352905 
	C1289.008423,1150.384033 1288.340698,1150.363037 1287.674316,1150.360840 
	C1263.233887,1150.278931 1264.179321,1152.403564 1249.135742,1132.626587 
	C1234.661133,1113.597168 1220.009521,1094.702148 1205.383179,1075.788696 
	C1202.955078,1072.648926 1200.258911,1069.716553 1197.014771,1067.076416 
z"/>
<path fill="#F7F6F7" opacity="1.000000" stroke="none" 
	d="
M1680.001953,1040.333252 
	C1693.321045,1040.330688 1705.669678,1039.812988 1717.950317,1040.502563 
	C1726.446167,1040.979492 1735.091187,1042.298950 1743.240234,1044.699219 
	C1758.313354,1049.138916 1766.363525,1061.086426 1767.707031,1075.611694 
	C1769.035889,1089.978516 1770.007324,1104.727295 1766.471436,1119.243530 
	C1762.340576,1136.202515 1751.109131,1147.200317 1733.994385,1149.604370 
	C1729.405884,1150.248779 1724.712769,1150.285767 1720.064453,1150.341431 
	C1696.799438,1150.620605 1673.533569,1150.886353 1650.267334,1150.947632 
	C1647.165649,1150.955811 1644.060791,1149.772461 1640.353149,1149.017822 
	C1640.353149,1144.871338 1640.352905,1141.607300 1640.353149,1138.343262 
	C1640.354614,1109.708496 1640.337402,1081.073608 1640.367676,1052.438843 
	C1640.379761,1040.948242 1640.934448,1040.393799 1652.032349,1040.340332 
	C1661.022217,1040.296997 1670.012451,1040.332642 1680.001953,1040.333252 
M1667.609863,1095.001221 
	C1667.609863,1105.878418 1667.609863,1116.755615 1667.609863,1128.286377 
	C1686.465210,1128.286377 1704.374146,1128.705688 1722.252197,1128.142334 
	C1734.628418,1127.752319 1741.179688,1120.272827 1741.658447,1107.439331 
	C1741.956055,1099.462524 1741.899292,1091.461060 1741.680176,1083.479370 
	C1741.354248,1071.609253 1734.341919,1064.067505 1722.489258,1063.806641 
	C1704.395874,1063.408447 1686.287354,1063.702271 1667.607544,1063.702271 
	C1667.607544,1073.770630 1667.607544,1083.385986 1667.609863,1095.001221 
z"/>
<path fill="#F7F7F7" opacity="1.000000" stroke="none" 
	d="
M965.216919,1053.359497 
	C975.662415,1042.996216 988.411255,1040.819336 1001.483093,1040.436523 
	C1017.121643,1039.978516 1032.819946,1039.699707 1048.421631,1040.588623 
	C1056.847900,1041.068726 1065.590454,1043.039429 1073.365845,1046.302368 
	C1086.055908,1051.627808 1090.900513,1063.399658 1091.390747,1076.138306 
	C1091.963623,1091.023926 1091.220947,1106.010620 1090.183716,1120.893188 
	C1089.160767,1135.569946 1080.172119,1144.284546 1066.416138,1148.113037 
	C1061.677246,1149.431885 1056.637451,1150.195435 1051.722168,1150.261353 
	C1033.409180,1150.506714 1015.086914,1150.592163 996.776367,1150.267822 
	C985.642456,1150.070679 975.139771,1147.617798 966.698608,1139.315186 
	C961.686218,1134.385132 958.973389,1128.358765 957.931458,1121.816162 
	C955.148254,1104.339233 955.725952,1086.722290 958.160095,1069.286499 
	C958.904785,1063.952759 962.446289,1059.009399 965.216919,1053.359497 
M1063.780640,1118.127075 
	C1067.424194,1104.699951 1065.955444,1090.992432 1065.135376,1077.491211 
	C1064.558105,1067.986572 1058.923584,1063.932983 1048.756104,1063.745605 
	C1032.776489,1063.450806 1016.768311,1063.185913 1000.808044,1063.815796 
	C986.276306,1064.389404 984.117615,1069.465820 982.524292,1081.434814 
	C981.304565,1090.597412 981.360657,1100.162720 982.475464,1109.351685 
	C984.395813,1125.180664 987.912170,1127.423462 1000.694031,1128.000732 
	C1016.642761,1128.721313 1032.650757,1128.466309 1048.623535,1128.148804 
	C1054.704712,1128.028076 1060.473511,1126.076172 1063.780640,1118.127075 
z"/>
<path fill="#F9F9F9" opacity="1.000000" stroke="none" 
	d="
M1190.177246,857.543335 
	C1194.921265,865.462769 1199.298950,872.746094 1204.330444,881.117065 
	C1141.531250,881.117065 1080.276855,881.117065 1017.853943,881.117065 
	C1019.135803,878.960571 1019.666809,877.427795 1020.705383,876.415710 
	C1036.645630,860.882202 1052.563965,845.323486 1068.748535,830.047119 
	C1070.886108,828.029480 1074.450806,826.511475 1077.368286,826.487976 
	C1108.634888,826.235779 1139.904175,826.331055 1171.768311,826.331055 
	C1177.750610,836.469177 1183.780640,846.688171 1190.177246,857.543335 
z"/>
<path fill="#F7F6F7" opacity="1.000000" stroke="none" 
	d="
M1969.960815,1121.795654 
	C1975.060547,1131.106201 1979.814697,1139.761353 1985.118774,1149.417480 
	C1975.264771,1152.857178 1966.323486,1152.760742 1957.486328,1149.657104 
	C1955.680176,1149.022827 1954.389038,1146.352295 1953.291626,1144.380493 
	C1950.398071,1139.181274 1947.741577,1133.850342 1944.640503,1127.899902 
	C1921.279419,1127.899902 1897.724976,1127.899902 1873.208862,1127.899902 
	C1870.415039,1133.216431 1866.954834,1139.231079 1864.057251,1145.505615 
	C1861.953613,1150.061035 1858.894775,1152.299438 1853.939697,1151.661987 
	C1847.277466,1150.805176 1840.038330,1153.903442 1833.088257,1148.486572 
	C1840.918823,1133.805542 1848.614258,1119.227295 1856.450928,1104.725464 
	C1864.957764,1088.983521 1873.538330,1073.280762 1882.213501,1057.631226 
	C1884.624023,1053.282837 1886.897583,1048.628662 1890.253784,1045.078979 
	C1898.827026,1036.011963 1924.011353,1038.866455 1930.173340,1049.738525 
	C1943.579346,1073.392456 1956.497681,1097.322876 1969.960815,1121.795654 
M1893.400513,1090.372681 
	C1890.426025,1095.792603 1887.451660,1101.212402 1884.133911,1107.257812 
	C1900.801880,1107.257812 1916.184448,1107.257812 1933.060547,1107.257812 
	C1924.986450,1092.001709 1918.011230,1077.405396 1908.468018,1062.267090 
	C1903.018311,1072.202881 1898.421875,1080.583374 1893.400513,1090.372681 
z"/>
<path fill="#020202" opacity="1.000000" stroke="none" 
	d="
M847.005493,1103.768066 
	C850.048279,1106.166748 853.636353,1108.223145 854.005005,1110.749268 
	C854.692749,1115.461060 853.920837,1120.539673 852.848206,1125.259155 
	C852.533447,1126.644165 849.162781,1128.190063 847.178711,1128.208984 
	C825.348450,1128.418457 803.515381,1128.340576 780.974426,1128.340576 
	C780.974426,1119.865967 780.974426,1112.129028 780.974426,1103.637695 
	C803.113342,1103.637695 824.605652,1103.637695 847.005493,1103.768066 
z"/>
<path fill="#0C0C0C" opacity="1.000000" stroke="none" 
	d="
M792.572449,1085.700928 
	C788.393738,1085.419189 785.155457,1085.137817 781.605530,1084.829346 
	C779.139832,1077.522095 780.386536,1070.399658 780.493652,1062.666870 
	C783.301147,1062.509277 785.537598,1062.278076 787.774475,1062.274536 
	C806.040222,1062.245239 824.306458,1062.179199 842.571472,1062.295776 
	C850.404236,1062.345703 853.831116,1065.588867 854.294739,1072.718262 
	C854.710266,1079.108032 850.844971,1084.151733 844.294739,1085.386353 
	C842.040405,1085.811157 839.668945,1085.684937 837.350769,1085.688721 
	C822.738159,1085.712036 808.125549,1085.701050 792.572449,1085.700928 
z"/>
<path fill="#020202" opacity="1.000000" stroke="none" 
	d="
M1667.608643,1094.001221 
	C1667.607544,1083.385986 1667.607544,1073.770630 1667.607544,1063.702271 
	C1686.287354,1063.702271 1704.395874,1063.408447 1722.489258,1063.806641 
	C1734.341919,1064.067505 1741.354248,1071.609253 1741.680176,1083.479370 
	C1741.899292,1091.461060 1741.956055,1099.462524 1741.658447,1107.439331 
	C1741.179688,1120.272827 1734.628418,1127.752319 1722.252197,1128.142334 
	C1704.374146,1128.705688 1686.465210,1128.286377 1667.609863,1128.286377 
	C1667.609863,1116.755615 1667.609863,1105.878418 1667.608643,1094.001221 
z"/>
<path fill="#030303" opacity="1.000000" stroke="none" 
	d="
M1063.551392,1118.915283 
	C1060.473511,1126.076172 1054.704712,1128.028076 1048.623535,1128.148804 
	C1032.650757,1128.466309 1016.642761,1128.721313 1000.694031,1128.000732 
	C987.912170,1127.423462 984.395813,1125.180664 982.475464,1109.351685 
	C981.360657,1100.162720 981.304565,1090.597412 982.524292,1081.434814 
	C984.117615,1069.465820 986.276306,1064.389404 1000.808044,1063.815796 
	C1016.768311,1063.185913 1032.776489,1063.450806 1048.756104,1063.745605 
	C1058.923584,1063.932983 1064.558105,1067.986572 1065.135376,1077.491211 
	C1065.955444,1090.992432 1067.424194,1104.699951 1063.551392,1118.915283 
z"/>
<path fill="#0A0A0A" opacity="1.000000" stroke="none" 
	d="
M1893.612915,1089.668213 
	C1898.421875,1080.583374 1903.018311,1072.202881 1908.468018,1062.267090 
	C1918.011230,1077.405396 1924.986450,1092.001709 1933.060547,1107.257812 
	C1916.184448,1107.257812 1900.801880,1107.257812 1884.133911,1107.257812 
	C1887.451660,1101.212402 1890.426025,1095.792603 1893.612915,1089.668213 
z"/>
</svg>